HIERARCHY
ROOT Hips
{
	OFFSET -14.64140 90.27770 -84.91600
	CHANNELS 6 Xposition Yposition Zposition Zrotation Xrotation Yrotation
	JOINT Spine
	{
		OFFSET 0.00000 13.20850 -1.60436
		CHANNELS 3 Zrotation Xrotation Yrotation
		JOINT Spine1
		{
			OFFSET 0.00000 8.61716 0.00000
			CHANNELS 3 Zrotation Xrotation Yrotation
			JOINT Spine2
			{
				OFFSET 0.00000 8.61717 0.00000
				CHANNELS 3 Zrotation Xrotation Yrotation
				JOINT Spine3
				{
					OFFSET 0.00000 8.61717 0.00000
					CHANNELS 3 Zrotation Xrotation Yrotation
					JOINT Neck
					{
						OFFSET 0.00000 11.07920 1.10792
						CHANNELS 3 Zrotation Xrotation Yrotation
						JOINT Neck1
						{
							OFFSET 0.00000 7.08032 0.00000
							CHANNELS 3 Zrotation Xrotation Yrotation
							JOINT Head
							{
								OFFSET 0.00000 7.08031 0.00000
								CHANNELS 3 Zrotation Xrotation Yrotation
								End site
								{
									OFFSET 0.00000 0.00000 0.00000
								}
							}
						}
					}
					JOINT RightShoulder
					{
						OFFSET -0.01000 7.91373 5.19711
						CHANNELS 3 Zrotation Xrotation Yrotation
						JOINT RightArm
						{
							OFFSET -18.41580 0.00000 0.00000
							CHANNELS 3 Zrotation Xrotation Yrotation
							JOINT RightForeArm
							{
								OFFSET -29.11090 0.00000 0.00000
								CHANNELS 3 Zrotation Xrotation Yrotation
								JOINT RightHand
								{
									OFFSET -24.65040 0.00000 0.00000
									CHANNELS 3 Zrotation Xrotation Yrotation
									JOINT RightHandThumb1
									{
										OFFSET -5.35114 -0.85590 3.97906
										CHANNELS 3 Zrotation Xrotation Yrotation
										JOINT RightHandThumb2
										{
											OFFSET -4.52789 0.00000 0.00000
											CHANNELS 3 Zrotation Xrotation Yrotation
											JOINT RightHandThumb3
											{
												OFFSET -2.46976 0.00000 0.00000
												CHANNELS 3 Zrotation Xrotation Yrotation
												End site
												{
													OFFSET 0.00000 0.00000 0.00000
												}
											}
										}
									}
									JOINT RightHandIndex1
									{
										OFFSET -14.26970 0.00000 2.88139
										CHANNELS 3 Zrotation Xrotation Yrotation
										JOINT RightHandIndex2
										{
											OFFSET -5.48836 0.00000 0.00000
											CHANNELS 3 Zrotation Xrotation Yrotation
											JOINT RightHandIndex3
											{
												OFFSET -3.01859 0.00000 0.00000
												CHANNELS 3 Zrotation Xrotation Yrotation
												End site
												{
													OFFSET 0.00000 0.00000 0.00000
												}
											}
										}
									}
									JOINT RightHandMiddle1
									{
										OFFSET -14.26970 0.00000 -0.09147
										CHANNELS 3 Zrotation Xrotation Yrotation
										JOINT RightHandMiddle2
										{
											OFFSET -6.17441 0.00000 0.00000
											CHANNELS 3 Zrotation Xrotation Yrotation
											JOINT RightHandMiddle3
											{
												OFFSET -3.56743 0.00000 0.00000
												CHANNELS 3 Zrotation Xrotation Yrotation
												End site
												{
													OFFSET 0.00000 0.00000 0.00000
												}
											}
										}
									}
									JOINT RightHandRing1
									{
										OFFSET -12.69180 0.00000 -3.06433
										CHANNELS 3 Zrotation Xrotation Yrotation
										JOINT RightHandRing2
										{
											OFFSET -5.62556 0.00000 0.00000
											CHANNELS 3 Zrotation Xrotation Yrotation
											JOINT RightHandRing3
											{
												OFFSET -3.56744 0.00000 0.00000
												CHANNELS 3 Zrotation Xrotation Yrotation
												End site
												{
													OFFSET 0.00000 0.00000 0.00000
												}
											}
										}
									}
									JOINT RightHandPinky1
									{
										OFFSET -11.11390 0.00000 -6.03719
										CHANNELS 3 Zrotation Xrotation Yrotation
										JOINT RightHandPinky2
										{
											OFFSET -4.52789 0.00000 0.00000
											CHANNELS 3 Zrotation Xrotation Yrotation
											JOINT RightHandPinky3
											{
												OFFSET -2.46976 0.00000 0.00000
												CHANNELS 3 Zrotation Xrotation Yrotation
												End site
												{
													OFFSET 0.00000 0.00000 0.00000
												}
											}
										}
									}
								}
							}
						}
					}
					JOINT LeftShoulder
					{
						OFFSET 0.01000 7.91373 5.19711
						CHANNELS 3 Zrotation Xrotation Yrotation
						JOINT LeftArm
						{
							OFFSET 18.41580 0.00000 0.00000
							CHANNELS 3 Zrotation Xrotation Yrotation
							JOINT LeftForeArm
							{
								OFFSET 29.11090 0.00000 0.00000
								CHANNELS 3 Zrotation Xrotation Yrotation
								JOINT LeftHand
								{
									OFFSET 24.65040 0.00000 0.00000
									CHANNELS 3 Zrotation Xrotation Yrotation
									JOINT LeftHandThumb1
									{
										OFFSET 5.35114 -0.85590 3.97906
										CHANNELS 3 Zrotation Xrotation Yrotation
										JOINT LeftHandThumb2
										{
											OFFSET 4.52789 0.00000 0.00000
											CHANNELS 3 Zrotation Xrotation Yrotation
											JOINT LeftHandThumb3
											{
												OFFSET 2.46977 0.00000 0.00000
												CHANNELS 3 Zrotation Xrotation Yrotation
												End site
												{
													OFFSET 0.00000 0.00000 0.00000
												}
											}
										}
									}
									JOINT LeftHandIndex1
									{
										OFFSET 14.26970 0.00000 2.88139
										CHANNELS 3 Zrotation Xrotation Yrotation
										JOINT LeftHandIndex2
										{
											OFFSET 5.48836 0.00000 0.00000
											CHANNELS 3 Zrotation Xrotation Yrotation
											JOINT LeftHandIndex3
											{
												OFFSET 3.01859 0.00000 0.00000
												CHANNELS 3 Zrotation Xrotation Yrotation
												End site
												{
													OFFSET 0.00000 0.00000 0.00000
												}
											}
										}
									}
									JOINT LeftHandMiddle1
									{
										OFFSET 14.26970 0.00000 -0.09147
										CHANNELS 3 Zrotation Xrotation Yrotation
										JOINT LeftHandMiddle2
										{
											OFFSET 6.17440 0.00000 0.00000
											CHANNELS 3 Zrotation Xrotation Yrotation
											JOINT LeftHandMiddle3
											{
												OFFSET 3.56744 0.00000 0.00000
												CHANNELS 3 Zrotation Xrotation Yrotation
												End site
												{
													OFFSET 0.00000 0.00000 0.00000
												}
											}
										}
									}
									JOINT LeftHandRing1
									{
										OFFSET 12.69180 0.00000 -3.06433
										CHANNELS 3 Zrotation Xrotation Yrotation
										JOINT LeftHandRing2
										{
											OFFSET 5.62556 0.00000 0.00000
											CHANNELS 3 Zrotation Xrotation Yrotation
											JOINT LeftHandRing3
											{
												OFFSET 3.56744 0.00000 0.00000
												CHANNELS 3 Zrotation Xrotation Yrotation
												End site
												{
													OFFSET 0.00000 0.00000 0.00000
												}
											}
										}
									}
									JOINT LeftHandPinky1
									{
										OFFSET 11.11390 0.00000 -6.03719
										CHANNELS 3 Zrotation Xrotation Yrotation
										JOINT LeftHandPinky2
										{
											OFFSET 4.52789 0.00000 0.00000
											CHANNELS 3 Zrotation Xrotation Yrotation
											JOINT LeftHandPinky3
											{
												OFFSET 2.46976 0.00000 0.00000
												CHANNELS 3 Zrotation Xrotation Yrotation
												End site
												{
													OFFSET 0.00000 0.00000 0.00000
												}
											}
										}
									}
								}
							}
						}
					}
					JOINT pCube4
					{
						OFFSET 0.00000 10.91090 1.10792
						CHANNELS 3 Zrotation Xrotation Yrotation
						End site
						{
							OFFSET 0.00000 0.00000 0.00000
						}
					}
				}
			}
		}
	}
	JOINT RightUpLeg
	{
		OFFSET -9.98441 0.00000 0.00000
		CHANNELS 3 Zrotation Xrotation Yrotation
		JOINT RightLeg
		{
			OFFSET 0.00000 -42.11790 0.00000
			CHANNELS 3 Zrotation Xrotation Yrotation
			JOINT RightFoot
			{
				OFFSET 0.00000 -45.00020 -0.00001
				CHANNELS 3 Zrotation Xrotation Yrotation
				JOINT RightForeFoot
				{
					OFFSET 0.00000 -3.74820 0.00000
					CHANNELS 3 Zrotation Xrotation Yrotation
					JOINT RightToeBase
					{
						OFFSET 0.00000 0.06325 14.43120
						CHANNELS 3 Zrotation Xrotation Yrotation
						End site
						{
							OFFSET 0.00000 0.00000 0.00000
						}
					}
				}
			}
		}
	}
	JOINT LeftUpLeg
	{
		OFFSET 9.98441 0.00000 0.00000
		CHANNELS 3 Zrotation Xrotation Yrotation
		JOINT LeftLeg
		{
			OFFSET 0.00000 -42.11800 0.00000
			CHANNELS 3 Zrotation Xrotation Yrotation
			JOINT LeftFoot
			{
				OFFSET 0.00000 -45.00070 0.00000
				CHANNELS 3 Zrotation Xrotation Yrotation
				JOINT LeftForeFoot
				{
					OFFSET 0.00000 -3.74824 0.00000
					CHANNELS 3 Zrotation Xrotation Yrotation
					JOINT LeftToeBase
					{
						OFFSET 0.00000 0.06325 14.43110
						CHANNELS 3 Zrotation Xrotation Yrotation
						End site
						{
							OFFSET 0.00000 0.00000 0.00000
						}
					}
				}
			}
		}
	}
}
MOTION
Frames: 4
Frame Time: 0.050000
-0.02331987044331801 0.03844751857327153 0.0025150414844850146 0.03460715664290963 0.005380380301230617 -0.0014236906685132207 5.1526475773999 6.627668135003846 -1.9169678204005527 -1.0255442089628846 4.210660441704029 0.39877803389634475 -0.6513887327674197 -0.5463548038110562 1.0131003864703205 -0.047782802039521524 0.10644782872303601 -0.28223113015907697 -0.4351698312885874 14.068812953967667 -1.3800377655456026 -0.4140143029043568 -1.8442314330090632 -4.009136710635615 0.29297152415894956 -19.641394343613833 -0.3471450492953444 -12.646648633267379 3.9928446902722388 -17.47957332167123 77.41656779285734 -6.5544917663452384 15.269002535452024 10.19273311429668 -5.058860443375801 70.6588248567141 2.1147919211498794 0.12016789664121948 0.10318496884282621 4.552147864954627 -0.09994750164789723 -1.5846576312131317 0.04135361774877061 -0.011337208746282279 -56.217786407188456 -0.041960665158061614 0.021778282459226937 -56.25260144971338 -38.73349455671601 0.014029015800362882 0.048881339041698994 -0.04082739590150184 0.04904382324313636 -0.04830827988722197 0.02822813813660939 -0.019050659668369527 0.016190481837470377 -36.65729332967976 0.0006661463084579496 -0.03931842179669096 0.005310842334494631 0.022806072855371624 0.014768054974365955 -0.04351940340973993 -0.010680661988875993 -0.00043583154309849285 -19.73637569185853 0.038605643144872644 -0.01782510715109218 0.017302560286224265 -0.011041669397509292 -0.017417721677985568 -0.007193850970705734 0.006044294711711592 0.040260486879645827 24.0979175397417 -0.004224609747543904 -0.032056049696966585 28.836502183287458 -0.03550561445882949 0.015904699452305174 28.88556251672448 -0.02335146018616265 0.022830218956347206 12.133426961905416 2.630916005477038 14.877317538328114 -71.89715342401784 7.624558744046667 -20.72458173534242 -3.91939420942625 -7.370358557574537 -62.0032697031044 -4.533053787839471 2.471822160329676 -3.616951892249012 -0.4869063274052089 0.05775620680353892 -8.08237542721971 0.012019645409646 0.005601974384521804 44.57037006492557 -0.0018535263583366348 0.004759717577887337 44.55591766328547 12.44598573421759 -0.02305503397815687 -0.0319247445937648 -0.047919577061709746 0.026871245073422118 0.014638523463701427 -0.040907265358772905 0.02033245567241657 -0.018075439988322995 11.123129427516725 -0.012423123385439319 -0.0049169145253635405 0.01222668647807285 0.034465682809798205 0.04654023382440189 0.04154410116189816 0.0498615707856139 -0.03960112461506407 4.815579983901311 0.0057415792749971875 -0.015253692679412874 0.010927985428593938 -0.014958788696264852 0.010188609996799897 0.017933963432052002 -0.005056989212414239 0.005807611235957431 -5.6221430099354475 -0.011866003285876102 -0.032811888650550625 -6.716183615685348 -0.010797287924642783 0.01366767592821254 -6.724740976296722 0.04651950211237959 -0.020619479922658362 -0.02689282009801279 -0.010135951297819384 0.01910036333792992 8.064634117049852 3.503166948784439 -19.24750493296352 0.020008477283031057 10.378542339399528 -0.014073108399433206 -5.664194782015786 -15.652310185435326 3.1624194908186722 -0.03454487339466415 0.03219720924289439 0.006835989771597047 0.03467836618811931 4.659948085740296 -0.00521138382899075 12.478921738649515 -8.231646828941908 6.879344167843518 0.008777262891150241 46.39449833474904 0.0052821509663836365 -4.336444358600941 -14.732519075572284 -3.851257959974862 0.013374115192680532 -0.0037479367059540915 0.002030588259092517 -0.028792129067077288 -10.711304515516373 0.0377210027591144 
0.004197506747393605 -0.04186562088157141 -0.005162857094841677 0.04013313488191367 -0.01602841872766744 -0.021644181952759547 5.1256632190607005 6.642042695152084 -1.8342458361437843 -1.0408844030363875 4.2273811861093655 0.47037439992496594 -0.6424766495918517 -0.5427359546634049 0.9907262320124333 0.0559736468722539 0.07588439587830884 -0.3192259252156511 -0.36808787546944194 14.030499227260147 -1.4805383244707688 -0.416722152684308 -1.8564431184770236 -4.359608953121467 0.3245580485641324 -19.62784958792474 -0.3524187174315099 -12.413342477621667 3.8636327252591776 -17.53081932229756 76.04324104661751 -5.372132160358917 14.830985910538045 11.683709179298232 -4.868356819444292 71.70209944987569 2.7754130916100146 0.10920163233726568 -0.03629987815538881 4.547559694950796 -0.13237702032109705 -1.6205411910631426 0.014258893783772732 -0.036544509755374065 -56.23061012191959 -0.016952484146442074 0.0036146485374675104 -56.21809791922083 -38.816031688995196 -0.03173881685845135 -0.018872745877493644 0.03245672018544979 2.8160744826273765e-08 -0.021378298288891314 0.005896000859927319 0.030264878860363064 0.03646298479443052 -36.7119796013357 0.032357414508387465 0.015434726282268895 0.0304896267570782 -0.018948536614161113 -0.005042396819075732 0.0015548882108705696 0.030683176255281355 -0.028653091848912092 -19.726388886395043 -0.0006503063121318046 -0.0014891349082259448 -0.007177191526610496 -0.03897179339150074 0.017341202834276072 0.019730725624334023 0.0070885621651916525 -0.0014469769334565347 24.09715575359903 -0.0031341781442521333 -0.041272704590826034 28.901121542180665 -0.02608349321883184 0.03307406601625091 28.839321012374665 0.01967770726090459 0.03088889440797029 11.933488871528843 2.5914748274503148 15.001323394078382 -71.09441706631891 7.854399132150773 -20.194137068798632 -5.116956660738314 -7.085220266134065 -63.03262676462365 -5.193908245183625 2.1959616477945114 -3.3898813096367273 -0.4420376420080617 0.10573633554586562 -8.159889446894177 0.03474868758334379 0.02767067756596812 44.587068726174756 0.04917438671744547 -0.021025029504065405 44.59662988921743 12.46315692832931 -0.047463681065046906 -0.037222475881883654 -0.014760165219152882 0.007710980238414138 0.0072900550066119525 0.04335742911711239 0.01436669601445628 0.010978607093318148 11.086595888774736 -0.019754159011493272 -0.03815289739244211 0.007050197476915734 0.03693000834116582 -0.029079610653287173 4.5592476285205726e-05 0.03791663271602403 0.048753262396136615 4.745376272584331 0.02479068041914642 -0.039963611522613116 -0.001146171840665334 -0.028140357815090764 -0.03782703491923493 0.004587949646083011 -0.01760624922638326 0.03325462622878385 -5.583384257755052 0.01235044224554942 -0.004646763435306675 -6.710219870961061 0.03822269163912062 0.0410075992875995 -6.741657575182545 0.01592839407900318 0.04405262218146807 0.01672788484568547 0.03409824562827491 -0.007850860326466223 8.04463019864801 3.453591914635296 -19.238135421940477 0.023071913424258246 10.350337152837245 0.018188748347965272 -5.577794770389963 -15.6226373925922 3.2227068960946528 -0.03826936226309275 0.029040963078331015 -0.002569008223117782 -0.005638869853248068 4.663564449269565 -0.040903892859039385 12.505916353083492 -8.217144377439496 6.852320203654964 -0.03922136977438758 46.401377040324796 -0.013209556926851272 -4.328653549998986 -14.71365887743489 -3.828657451536355 -0.023268639709559946 0.010835571009714611 0.007254211298664105 0.009510955467635663 -10.792866360071233 -0.0018931558329726831 
0.03577020643233738 -0.020758115177420475 0.03250197895783417 -0.03289089091224149 -0.03982278852513383 -0.010857597529728131 5.08669071649293 6.708335712186314 -1.8149486109659216 -0.9839861650735408 4.218199057382858 0.43847999761673273 -0.6723220578924721 -0.5059637923731634 1.0210086807203922 0.1991905799750818 0.06656995012555288 -0.2771811221081371 -0.31546909536506706 14.06821339597079 -1.8397687377110135 -0.38384717875335356 -1.8848232301687955 -5.1116478294938545 0.35781960330530765 -19.66234155683309 -0.39066559633355613 -12.299817762815147 3.745952226831095 -17.63412188995887 74.82789424774688 -4.105975204566306 14.69603608042646 12.396630451793994 -5.280344434090547 72.17871622505353 3.2786372477978944 0.07195444314828993 -0.19319498536221602 4.5103438011537635 -0.10235188307077342 -1.6189546234495236 0.02326526175298126 0.03605080598252599 -56.25977940826874 0.011646614555559657 0.010445077068683167 -56.25392307254418 -38.787655128511986 0.03598354290886877 -0.022798160509380716 -0.030591767735285963 -0.04697708393753584 -0.006077893888552418 -0.018040664152322704 0.011851084126290625 0.010200307977262311 -36.73884320791292 0.034654186032004285 0.0022713249159914454 -0.016210480079294157 -0.017173190180859745 0.0069008390791890336 -0.046111059434879566 0.04958355793282028 -0.015908669528594776 -19.720018019425883 0.007609659171416739 0.025831300185746957 -0.04431720848608835 -0.009398272866101844 -0.04226955274009786 -0.0014038722879916668 0.018067543177949875 -0.006018322754545324 24.04943769751311 -0.031649578004966546 -0.012512757513171775 28.88707431281819 -0.03850492258511818 0.006298871563169758 28.866152596884902 0.041590241257564456 0.026299758857404036 11.595302404562771 2.458684734801974 15.01418358716366 -70.5297782061458 8.014789017962732 -19.551004127751774 -6.1475817148201 -7.618817800122455 -63.49569964989146 -5.768538359493819 1.96938012718123 -3.1480119630534036 -0.47667337110867075 0.0907418773164661 -8.13234016722937 0.0066879213147904735 -0.042728492556215504 44.550092443199915 0.03589754285181408 -0.04939396895293217 44.60872953247008 12.458454982406279 -0.037092186653746036 -0.02165145818705747 -0.012197389469653354 -0.010479656270538271 -0.04585850170136714 0.01911891993137828 -0.014832761471072013 0.02283292490609761 11.09225878208231 -0.029565911376546083 -0.007195479317344271 -0.04895905111042607 -0.010321764146001822 -0.004026208036505342 -0.0039933764803719895 0.019654370748283717 -0.008535305388005789 4.726205598250674 -0.04274340362261251 0.04007456607209588 -0.03457337367054165 -0.0006923038855169554 0.04112693189219633 0.012820105326978158 -0.0341655009588732 -0.0012199256787983046 -5.63284785577673 -0.00733070867363552 0.01113610355170805 -6.738515599101674 -0.0072244489190692075 -0.007698184802225979 -6.767727678774745 -0.041982247405753355 -0.032562989250521035 0.029991712700647884 -4.102898842217857e-05 0.029570169278700594 8.069638533871839 3.519719538714141 -19.21649125741945 0.013835468840592786 10.377597043827217 0.059418472332594396 -5.622567877817691 -15.679778687546971 3.1479038457825297 0.02422913224326532 0.0066910017498345385 0.03913837847300058 -0.0048305227395400345 4.735021886318773 0.00674668529359694 12.429180318904049 -8.209656583403136 6.916568593801174 -0.0333582019060406 46.396759054312334 0.013140716907581609 -4.372546818325579 -14.715100013435611 -3.884554543947037 -0.01382237968590503 0.022056171177685848 0.022587677533565616 0.03761608275527358 -10.718075003147126 -0.007039370231828584 
0.0431994685415193 -0.025821226406503146 0.00829712295530567 -0.017286308543033813 -0.04846104770438109 -0.044570245333359744 5.11377882746089 6.707012968514727 -1.8400050826841257 -1.0672439911850435 4.249067858589923 0.41146644687121015 -0.6327076332205738 -0.47694247123946865 1.1690211467307596 0.38159247461391604 0.14984878877327537 -0.24109358510590018 -0.23430494643584573 14.062460366159765 -2.2147377786644515 -0.4371706431843798 -1.8789437982608288 -6.1555715990393445 0.4684410745406676 -19.65831049858181 -0.5061669325886369 -12.105310835146774 3.716576298346381 -17.73315113468585 73.97226561034448 -3.311334334452449 14.461179841624316 12.5572594339482 -6.158913357281288 72.18205496993355 3.9697190769195485 0.07081002855012367 -0.5352014251925701 4.558128993790363 -0.1409714886440912 -1.5980827267673603 -0.04775813901787441 -0.004155392637977351 -56.241556940340935 0.01837189818590775 -0.02274217375826071 -56.202424972311015 -38.81782381354598 0.022493127598763363 -0.01626949516292892 -0.02574296555200435 0.024542243212705282 -0.0034561012124697953 -0.045233764732412876 0.012245634031366201 0.036788483375531915 -36.677240289333646 0.01859258873081745 0.024516689219903704 -0.01783167487514285 0.001985017947594659 0.04612794178452118 -0.03139246558428189 0.04004266189209635 0.0006263193255485093 -19.807104602335457 -0.011453396599613625 0.03917004084120968 0.03243646764971661 -0.03997855453183354 -0.01309291339960221 -0.003253972547349285 0.010163537639783655 0.022432719809367938 24.06112822177054 0.013157509529911597 0.032282860166482026 28.85878960854789 0.00011273421549166386 -0.005888136794888173 28.852520149432152 -0.018816010092198354 0.01068053062938222 11.155025958227847 2.401750692175775 15.194771214681834 -70.23646814027882 7.7021589140384155 -18.523669195527095 -7.377349837800095 -8.990054450935448 -63.386026147354755 -6.583439744980326 1.4307247427293424 -2.6865162938863447 -0.44736310203268204 0.037319712345671725 -8.104896103016602 0.013237551938129317 -0.006389662697999365 44.56888398944271 -0.0015812071211840438 -0.007510346206310955 44.566859966156805 12.465812832996212 0.019554431776007405 0.031441788762928025 -0.0076807860597113845 0.026604477629659156 -0.012984333363715041 -0.009638750703944892 -0.008795937383643064 -0.010218745769994673 11.081444654585823 -0.005824400860030488 -0.008314020855208944 0.04578989880149947 -0.022734547463901123 -0.04028350639848979 -0.035467054040263374 -0.001544805684868745 -0.003463984488278685 4.804155703454905 -0.017856055046130387 -0.014251987212466045 0.022940438824947767 -0.0005554861007596712 0.03559435487457766 -0.03993133442575367 -0.011188551291358505 -0.005688053732834443 -5.611099494612929 0.019837983412437435 -0.0029732573769694964 -6.73087540005924 0.01639256515958283 0.03037786679086612 -6.770661657014964 0.014168676532968239 0.027303339883149452 0.019887857401432563 0.029484884665380368 -0.01856720307983248 8.068441812750915 3.462096778964632 -19.178347299396954 0.03398703098632008 10.380965369741274 0.05306807916531353 -5.6035635551488 -15.64615337388162 3.184288702881201 0.04614010367758158 0.011900263488926414 -0.010062518543941844 0.03497493906492746 4.7071973027161205 0.03589906556954227 12.441263925502218 -8.278985264683303 6.857781210164438 -0.04234556282649578 46.3861543294173 0.002735035305863108 -4.345995804553755 -14.795439081003266 -3.833729551844284 0.03972743982646389 -0.02513070575360796 -0.03709755725854566 0.030891029770722674 -10.77382956725514 -0.03624520829174614 
